# xmcd CD database file
#
# Track frame offsets:
#	150
#	17422
#	35404
#	53446
#	72340
#	87148
#	105751
#	124534
#	144422
#	171926
#	188357
#	206697
#	226459
#	242547
#	260103
#	277828
#	293490
#	310631
#	326997
#	344069
#
# Disc length: 4779 seconds
#
# Revision: 1
# Processed by: cddbd v1.5.2PL0 Copyright (c) Steve Scherf et al.
# Submitted via: CDex 1.51
#
DISCID=0e12a914
DTITLE=Spirit of Salsa - Spirit of Salsa - Ambiente
DYEAR=2015
DGENRE=Salsa
TTITLE0=Papi Oviedo feat Tabaco Ron - Chan Chan
TTITLE1=Orquesta Aragon - A Bailar Mi Cha Onda
TTITLE2=Felix Baloy - El Son De Baloy
TTITLE3=David Cendeno y su Orquesta - Salsa Na Ma
TTITLE4=Bad Boys - Un Beso Robado
TTITLE5=Sonora Carruseles - Ave Maria Lola
TTITLE6=Dante Vargas and the Cat Band - Te Vas
TTITLE7=Fruko y sus Tesos - El Swing De Fruko
TTITLE8=Son 14 and Tiburon Morales - La Mulata Santiaguera
TTITLE9=Joe Arroyo y la Verdad - Fuego En Mi Mente
TTITLE10=Cienfuegos All Stars - Yo Tengo Mi Clave
TTITLE11=Gabino Pampini - La Tormenta
TTITLE12=Los Titanes - No La Dejes Sola
TTITLE13=Fruko y sus Tesos - Pachanga Con La Playa
TTITLE14=Grupo Cupido - Mi Verdadero Amor
TTITLE15=Osdalgia - Sola
TTITLE16=Maria Victoria y su Latin Son - Esa Es Barbara
TTITLE17=Setenta - Funky Tumbao
TTITLE18=Freddy Cruz y la Fuerza Latina - Obando El Vikingo
TTITLE19=Sonora Carruseles - Que Suene Mi Campana
EXTD=YEAR: 2015
EXTT0=
EXTT1=
EXTT2=
EXTT3=
EXTT4=
EXTT5=
EXTT6=
EXTT7=
EXTT8=
EXTT9=
EXTT10=
EXTT11=
EXTT12=
EXTT13=
EXTT14=
EXTT15=
EXTT16=
EXTT17=
EXTT18=
EXTT19=
PLAYORDER=
